<?xml version="1.0" encoding="UTF-8"?> <svg xmlns="http://www.w3.org/2000/svg" width="334" height="339" viewBox="0 0 334 339" fill="none"><g clip-path="url(#clip0_819_4675)"><path d="M99.86 24.24L90.91 16.3L94.26 14.85L100.7 20.45L101.89 19.93L102.04 11.47L105.39 10.02L105.23 21.91L104.06 22.42L106.71 28.52L103.68 29.83L101.03 23.73L99.86 24.24Z" fill="white"></path><path d="M107.77 21.33C106.35 17.19 107.99 14.41 111.96 13.04C116 11.65 119.16 12.92 120.55 16.96L120.84 17.81L110.95 21.2C111.55 22.95 113.48 23.32 115.42 22.65C117.26 22.02 118.2 20.98 118.12 19.87L121 18.88C121.45 22.03 119.69 24.01 116.24 25.19C112.34 26.53 109.12 25.23 107.77 21.3V21.33ZM117.18 16.94C116.62 15.31 114.51 15.03 112.86 15.59C111.13 16.18 109.66 17.51 110.27 19.28L117.18 16.93V16.94Z" fill="white"></path><path d="M118.86 5.73002L121.85 4.90002L126.51 21.77L123.52 22.59L118.86 5.72002V5.73002Z" fill="white"></path><path d="M123.42 4.49L126.43 3.75L130.62 20.74L127.61 21.48L123.42 4.49Z" fill="white"></path><path d="M136.39 6.7C140.8 5.91 143.66 7.28 144.45 11.68C145.19 15.81 142.95 18.33 138.62 19.1C134.51 19.84 131.19 18.32 130.45 14.19C129.69 9.93 131.94 7.5 136.4 6.7H136.39ZM138.11 16.3C140.5 15.87 141.65 14.39 141.27 12.23C140.86 9.97 139.26 9.11 136.9 9.53C134.51 9.96 133.23 11.46 133.61 13.6C134.06 16.11 135.6 16.75 138.11 16.3Z" fill="white"></path><path d="M147.84 4.97003L151.82 17.21H151.85L152.49 4.70003L155.78 4.50003L155.15 17.04L148.43 17.44L144.42 5.18003L147.84 4.98003V4.97003ZM157.92 16.87L155.78 4.50003L159.13 4.30003L161.24 16.58H161.26L163.62 4.04003L167.04 3.84003L164.61 16.48L157.92 16.88V16.87Z" fill="white"></path><path d="M183.11 0.100011C186.87 0.480011 190.76 1.49001 190.29 6.06001L187.13 5.74001C187.37 3.40001 184.68 3.13001 182.79 2.93001C181.05 2.75001 178.31 2.50001 178.09 4.68001C177.97 5.85001 178.64 6.65001 180.02 6.94001L185.84 8.06001C188.55 8.56001 190.13 10.38 189.85 13.05C189.37 17.75 184.88 17.87 181.08 17.48C177.42 17.11 173.47 15.95 173.92 11.52L177.08 11.84C176.85 14.1 179.53 14.45 181.39 14.64C183.23 14.83 186.44 15.18 186.66 12.99C186.79 11.72 186.06 11.27 184.83 10.94L178.99 9.79001C176.18 9.23001 174.61 7.20001 174.89 4.47001C175.33 0.170011 179.55 -0.279989 183.11 0.0800109V0.100011Z" fill="white"></path><path d="M190.6 14.95C191.13 12.41 194.09 12.02 196.37 12.37L201.98 13.25L202.05 12.93C202.43 11.1 200.35 10.43 198.8 10.11C197.41 9.82 195.11 9.57 194.75 11.31L191.79 10.7C192.5 7.3 195.77 6.91 199.22 7.62C203.53 8.51 205.82 10.5 205.02 14.36L203.58 21.29L200.5 20.65L201.4 16.29C200.56 20.33 196.34 20.14 194.7 19.8C192.3 19.3 190.07 17.51 190.6 14.94V14.95ZM201.42 16.2L201.58 15.42L197.33 14.74C196.24 14.57 194.09 14.35 193.85 15.5C193.59 16.75 195.11 17.52 196.27 17.74C197.97 18.02 201.01 18.14 201.41 16.2H201.42Z" fill="white"></path><path d="M209.12 4.84003L212.11 5.66003L207.47 22.54L204.48 21.72L209.12 4.84003Z" fill="white"></path><path d="M220.79 13.88L221.91 14.25L221.05 16.86L217.11 15.56L215.63 20.05C215.3 21.05 215.47 21.81 216.42 22.13L219.03 22.99L218.07 25.91L214.41 24.7C212.2 23.97 211.53 22.09 212.31 19.72L214.02 14.54L211.5 13.71L212.36 11.1L219.79 13.55C216.44 12.45 214.87 11.87 215.97 8.53002L216.49 6.96002L219.6 7.99002L218.65 10.86C218.12 12.47 218.89 13.25 220.79 13.88Z" fill="white"></path><path d="M229.99 17.17C234.11 18.92 235.76 21.63 234.01 25.75C232.37 29.62 229.12 30.49 225.07 28.77C221.23 27.14 219.28 24.06 220.92 20.19C222.61 16.21 225.83 15.4 229.99 17.17ZM226.18 26.14C228.41 27.09 230.19 26.48 231.05 24.46C231.95 22.34 231.08 20.75 228.87 19.81C226.64 18.86 224.75 19.42 223.9 21.42C222.9 23.77 223.84 25.14 226.19 26.14H226.18Z" fill="white"></path><path d="M246.07 28.51L256.72 35.19L254.92 38.07L244.27 31.39L246.08 28.51H246.07Z" fill="white"></path><path d="M262.83 51.7L260.36 49.51L271.96 36.4L279.67 43.23C282.37 45.62 282.57 48.93 280.25 51.56C277.76 54.37 274.26 53.5 271.77 51.3L266.96 47.04L262.83 51.7ZM268.91 44.83L273.74 49.11C275.18 50.39 276.52 50.53 277.65 49.26C278.99 47.74 278.67 46.29 277.21 45L272.47 40.81L268.91 44.84V44.83Z" fill="white"></path><path d="M285.76 60.79L284.18 59.12C282.36 57.2 281.12 57.93 279.61 59.36L275.33 63.42L273.04 61.01L282.08 52.42L284.35 54.81L280.81 58.17C282.93 56.16 285.62 56.12 287 57.57L288.02 58.64L285.75 60.79H285.76Z" fill="white"></path><path d="M293.23 64.63C296.06 68.09 296.26 71.26 292.8 74.09C289.55 76.75 286.26 76.01 283.48 72.61C280.84 69.38 280.54 65.74 283.79 63.08C287.14 60.34 290.36 61.12 293.23 64.63ZM285.68 70.81C287.22 72.69 289.07 72.98 290.77 71.58C292.55 70.12 292.52 68.31 291 66.45C289.46 64.57 287.53 64.19 285.85 65.56C283.88 67.18 284.07 68.83 285.68 70.8V70.81Z" fill="white"></path><path d="M294.57 87.89L298.56 85.23C294.31 87.1 292.15 84.9 291.31 83.64C289.01 80.19 290.22 77.28 293.49 75.1C296.53 73.07 299.77 72.98 301.94 76.23C302.74 77.44 304.15 80.53 300.8 83.75L309.12 78.2L310.92 80.9L296.38 90.6L294.58 87.9L294.57 87.89ZM300.3 79.08C299.08 77.25 297.05 76.65 295.31 77.81C293.52 79 293.2 81.05 294.51 83C296.01 85.25 298.01 85.59 299.74 84.44C301.42 83.32 301.79 81.3 300.31 79.07L300.3 79.08Z" fill="white"></path><path d="M312.07 94.56L313.53 97.29L303.31 102.77L301.85 100.04L306.19 97.71C302.49 99.69 300.02 97.42 299.26 96C298.5 94.58 297.23 91.1 301.35 88.89L307.32 85.69L308.78 88.42L303.29 91.36C301.68 92.22 301.43 94.03 302.26 95.57C303.13 97.2 305.03 98.31 306.58 97.48L312.07 94.54V94.56Z" fill="white"></path><path d="M317.69 105.52C318.96 108.54 319.19 112.78 315.77 114.27L314.49 111.2C315.86 110.27 315.65 108.22 315.07 106.84C313.95 104.17 311.96 103.62 310.25 104.33C308.54 105.04 307.49 106.79 308.62 109.49C309.2 110.87 310.5 112.5 312.14 112.19L313.42 115.26C309.86 116.67 307.07 113.42 305.89 110.61C304.29 106.78 305.11 102.99 309.01 101.36C312.77 99.79 316.17 101.89 317.69 105.53V105.52Z" fill="white"></path><path d="M323.18 121.44L323.55 122.56L320.94 123.41L319.65 119.47L315.16 120.94C314.16 121.27 313.64 121.86 313.95 122.81L314.8 125.42L311.88 126.38L310.68 122.72C309.96 120.51 311.07 118.86 313.45 118.08L318.63 116.39L317.81 113.87L320.42 113.02L322.85 120.46C321.76 117.11 321.28 115.5 324.63 114.41L326.2 113.9L327.22 117.01L324.35 117.95C322.73 118.48 322.56 119.56 323.18 121.46V121.44Z" fill="white"></path><path d="M324.22 124.46L325.08 127.65L313.04 130.89L312.18 127.7L324.23 124.46H324.22ZM328.12 123.07C329.18 122.78 330.2 123.39 330.49 124.45C330.78 125.51 330.19 126.52 329.13 126.81C328.07 127.1 327.06 126.51 326.77 125.45C326.48 124.39 327.06 123.35 328.12 123.07Z" fill="white"></path><path d="M327.25 136.63C328.12 141.02 326.81 143.91 322.42 144.78C318.3 145.6 315.75 143.41 314.89 139.09C314.07 135 315.52 131.65 319.64 130.83C323.88 129.99 326.36 132.19 327.25 136.63ZM317.69 138.53C318.16 140.91 319.66 142.04 321.82 141.61C324.08 141.16 324.9 139.54 324.43 137.19C323.96 134.81 322.43 133.56 320.3 133.98C317.8 134.48 317.19 136.03 317.69 138.53Z" fill="white"></path><path d="M316.71 150.13L316.38 146.82L328.8 145.6L329.13 148.91L323.85 149.43C328.35 148.99 329.87 152.43 330.03 154.07C330.2 155.81 330.03 159.7 325.03 160.19L317.76 160.9L317.43 157.59L324.1 156.94C326.14 156.74 327.07 154.99 326.9 153.25C326.71 151.36 325.28 149.29 323.36 149.48L316.69 150.13H316.71Z" fill="white"></path><path d="M324.94 172.45L325.12 166.85L328.32 166.95L328.14 172.55L333.71 172.73L333.61 175.93L328.04 175.75L327.86 181.3L324.66 181.2L324.84 175.65L319.27 175.47L319.37 172.27L324.94 172.45Z" fill="white"></path><path d="M325.66 188.16C331.05 189.11 333.68 193.23 332.71 198.72C331.98 202.86 329.57 206.47 325.05 206.31L325.63 202.98C327.69 202.83 329.23 200.57 329.66 198.1C330.34 194.21 328.34 192.05 325.09 191.48C321.84 190.91 319.22 192.2 318.53 196.14C318.14 198.36 318.62 201.23 320.69 202.18L320.11 205.46C315.83 203.97 314.75 199.69 315.48 195.53C316.46 189.96 320.25 187.2 325.64 188.15L325.66 188.16Z" fill="white"></path><path d="M323.72 215.55C322.46 219.84 319.96 221.79 315.66 220.53C311.63 219.35 310.39 216.22 311.63 212C312.81 207.99 315.64 205.7 319.67 206.88C323.82 208.1 324.99 211.21 323.71 215.55H323.72ZM314.37 212.8C313.69 215.13 314.49 216.82 316.6 217.44C318.81 218.09 320.29 217.04 320.97 214.74C321.65 212.41 320.88 210.6 318.8 209.98C316.35 209.26 315.09 210.35 314.38 212.8H314.37Z" fill="white"></path><path d="M308.29 222.61L309.62 219.56L321.08 224.55L319.75 227.6L314.89 225.48C319.04 227.29 318.96 230.47 318.36 231.84C317.67 233.42 315.37 235.77 310.76 233.77C315.37 235.78 315.2 239.11 314.58 240.53C313.36 243.33 311.16 244.25 308.34 243.02L300.82 239.75L302.15 236.7L308.68 239.54C310.08 240.15 311.62 239.73 312.33 238.1C313.09 236.36 312.33 234.45 310.76 233.76L304.59 231.08L305.91 228.05L312.44 230.89C313.88 231.52 315.38 231.02 316.03 229.54C316.79 227.8 316.03 225.97 314.45 225.28L308.28 222.6L308.29 222.61Z" fill="white"></path><path d="M298.75 243.14L300.52 240.32L311.11 246.96L309.34 249.78L304.85 246.97C308.68 249.37 308.13 252.51 307.34 253.78C306.42 255.24 303.8 257.22 299.54 254.55C303.8 257.22 303.13 260.49 302.31 261.8C300.69 264.38 298.38 264.97 295.77 263.34L288.82 258.99L290.59 256.17L296.63 259.95C297.92 260.76 299.51 260.58 300.45 259.07C301.46 257.46 301 255.46 299.54 254.55L293.84 250.98L295.59 248.18L301.63 251.96C302.96 252.8 304.52 252.53 305.38 251.15C306.39 249.54 305.91 247.62 304.45 246.7L298.75 243.13V243.14Z" fill="white"></path><path d="M291.14 274.79L289.19 277.2L280.17 269.91L282.12 267.5L285.95 270.6C282.68 267.96 283.83 264.8 284.83 263.56C285.83 262.32 288.55 259.79 292.19 262.73L297.46 266.99L295.51 269.4L290.67 265.49C289.25 264.34 287.49 264.81 286.39 266.17C285.23 267.61 284.94 269.79 286.3 270.89L291.14 274.8V274.79Z" fill="white"></path><path d="M277 272.71L279.33 270.33L288.25 279.06L285.92 281.44L282.13 277.73C285.36 280.9 283.7 284.27 282.55 285.45C281.33 286.7 278.24 289.07 274.65 285.55L269.43 280.44L271.76 278.06L276.55 282.75C278.02 284.18 279.96 283.77 281.18 282.52C282.51 281.16 283.17 278.73 281.8 277.39L277.01 272.7L277 272.71Z" fill="white"></path><path d="M272.74 294L270.21 296.12L262.18 286.57L264.71 284.45L272.74 294ZM275.64 296.95C276.35 297.79 276.23 298.97 275.39 299.68C274.55 300.39 273.39 300.29 272.68 299.45C271.97 298.61 272.07 297.45 272.92 296.74C273.76 296.03 274.94 296.12 275.65 296.96L275.64 296.95Z" fill="white"></path><path d="M262.95 301.83C260.31 303.77 256.24 304.99 254 302.02L256.68 300.05C257.9 301.17 259.85 300.48 261.06 299.59C263.4 297.87 263.46 295.81 262.36 294.32C261.26 292.83 259.32 292.21 256.96 293.94C255.75 294.83 254.48 296.48 255.16 297.99L252.48 299.96C250.27 296.83 252.77 293.35 255.23 291.54C258.57 289.08 262.45 288.99 264.95 292.39C267.37 295.67 266.12 299.47 262.94 301.81L262.95 301.83Z" fill="white"></path><path d="M251.26 299.28C252.59 301.51 250.66 303.8 248.75 305.08L244.01 308.22L244.18 308.5C245.14 310.11 247.12 309.19 248.48 308.38C249.7 307.65 251.57 306.28 250.66 304.75L253.26 303.2C255.04 306.19 252.89 308.69 249.86 310.49C246.08 312.74 243.05 312.83 241.02 309.44L237.4 303.36L240.11 301.75L242.39 305.57C240.28 302.03 243.52 299.31 244.96 298.45C247.07 297.2 249.92 297.01 251.27 299.26L251.26 299.28ZM242.43 305.67L242.84 306.36L246.43 303.99C247.35 303.38 249.08 302.09 248.48 301.08C247.83 299.98 246.18 300.44 245.18 301.07C243.74 302.02 241.41 303.98 242.43 305.68V305.67Z" fill="white"></path><path d="M233.94 318.63L232.88 319.14L231.68 316.67L235.41 314.86L233.35 310.61C232.89 309.67 232.24 309.23 231.34 309.67L228.87 310.87L227.53 308.1L230.99 306.42C233.08 305.4 234.87 306.29 235.96 308.54L238.34 313.44L240.72 312.28L241.92 314.75L234.88 318.17C238.05 316.63 239.58 315.94 241.12 319.11L241.84 320.59L238.89 322.02L237.57 319.3C236.83 317.77 235.73 317.75 233.93 318.62L233.94 318.63Z" fill="white"></path><path d="M231.11 320.06L228.07 321.34L223.22 309.85L226.26 308.57L231.11 320.06ZM233.01 323.73C233.44 324.74 232.98 325.83 231.96 326.26C230.95 326.69 229.87 326.25 229.44 325.23C229.01 324.22 229.45 323.14 230.46 322.71C231.47 322.28 232.58 322.71 233 323.72L233.01 323.73Z" fill="white"></path><path d="M219.48 324.71C215.25 326.17 212.21 325.27 210.75 321.04C209.38 317.07 211.2 314.24 215.36 312.8C219.3 311.43 222.82 312.41 224.19 316.38C225.61 320.47 223.76 323.22 219.48 324.7V324.71ZM216.29 315.5C214 316.29 213.08 317.93 213.8 320.01C214.55 322.18 216.27 322.78 218.53 321.99C220.82 321.2 221.85 319.52 221.14 317.46C220.31 315.05 218.69 314.66 216.28 315.49L216.29 315.5Z" fill="white"></path><path d="M204.66 316.12L207.89 315.35L210.78 327.49L207.55 328.26L206.32 323.1C207.37 327.5 204.16 329.48 202.56 329.86C200.86 330.27 196.98 330.62 195.82 325.74L194.13 318.64L197.37 317.87L198.92 324.39C199.4 326.39 201.26 327.07 202.96 326.67C204.81 326.23 206.66 324.53 206.22 322.65L204.67 316.13L204.66 316.12Z" fill="white"></path><path d="M183.65 327.27L189.22 326.7L189.55 329.88L183.98 330.45L184.55 336L181.37 336.33L180.8 330.78L175.28 331.35L174.95 328.17L180.47 327.6L179.9 322.05L183.08 321.72L183.65 327.27Z" fill="white"></path><path d="M159.96 338.54C156.19 338.42 152.23 337.69 152.38 333.09L155.55 333.19C155.47 335.54 158.17 335.63 160.07 335.69C161.82 335.75 164.57 335.81 164.64 333.61C164.68 332.44 163.95 331.69 162.56 331.49L156.68 330.77C153.94 330.45 152.24 328.75 152.33 326.07C152.49 321.35 156.95 320.92 160.78 321.04C164.45 321.16 168.48 322.04 168.33 326.49L165.16 326.39C165.24 324.12 162.54 323.95 160.66 323.89C158.81 323.83 155.59 323.7 155.51 325.9C155.47 327.18 156.23 327.58 157.47 327.82L163.38 328.57C166.22 328.94 167.93 330.85 167.84 333.6C167.7 337.92 163.52 338.66 159.95 338.54H159.96Z" fill="white"></path><path d="M146.79 332.61L147.45 327.83C146.02 332.15 142.93 332.43 141.44 332.22C137.3 331.65 135.93 328.81 136.47 324.89C136.97 321.3 139.06 318.79 142.92 319.32C144.36 319.52 147.56 320.64 147.81 325.2L149.19 315.27L152.41 315.72L150.01 333.06L146.79 332.61ZM143.98 322.48C141.82 322.18 140.01 323.29 139.72 325.35C139.42 327.51 140.76 329.1 143.07 329.42C145.74 329.79 147.33 328.52 147.62 326.44C147.9 324.43 146.63 322.84 143.98 322.48Z" fill="white"></path><path d="M126.57 329.07C122.22 328.02 120.16 325.61 121.21 321.26C122.2 317.18 125.26 315.79 129.54 316.82C133.6 317.8 136.02 320.53 135.03 324.61C134.01 328.81 130.97 330.13 126.57 329.07ZM128.87 319.6C126.51 319.03 124.86 319.91 124.34 322.05C123.8 324.28 124.92 325.71 127.25 326.28C129.61 326.85 131.38 326 131.89 323.88C132.49 321.4 131.34 320.2 128.86 319.6H128.87Z" fill="white"></path><path d="M118.73 313.82L121.87 314.92L117.74 326.69L114.6 325.59L116.36 320.59C114.86 324.86 111.1 324.78 109.54 324.24C107.89 323.66 104.44 321.86 106.1 317.12L108.52 310.23L111.66 311.33L109.44 317.65C108.76 319.58 109.95 321.17 111.6 321.75C113.39 322.38 115.87 321.95 116.51 320.14L118.73 313.82Z" fill="white"></path><path d="M103.26 312.26C103.72 311.15 102.3 310.05 100.76 309.34C99.53 308.77 97.43 307.91 96.98 308.88C96.73 309.42 98.13 310.57 99.01 311.17L101.88 313.3C103.55 314.57 104.82 316.23 104.01 317.98C103.03 320.09 99.71 319.96 96.53 318.49C93.29 316.99 91.38 314.68 92.5 312.25L95.2 313.5C94.75 314.48 95.95 315.64 97.51 316.36C98.74 316.93 100.72 317.57 101.12 316.71C101.41 316.07 100.61 315.37 99.5 314.61L95.86 311.93C94.34 310.81 93.51 309.27 94.21 307.75C95.43 305.12 98.36 305.57 101.76 307.14C105.09 308.68 107.19 310.95 105.99 313.53L103.24 312.26H103.26Z" fill="white"></path><path d="M82.57 311.31C78.71 309.05 77.41 306.16 79.67 302.29C81.79 298.66 85.12 298.21 88.92 300.42C92.53 302.53 94.07 305.83 91.95 309.46C89.77 313.2 86.47 313.59 82.56 311.3L82.57 311.31ZM87.49 302.89C85.4 301.67 83.56 302.04 82.45 303.94C81.29 305.93 81.95 307.62 84.03 308.83C86.12 310.05 88.07 309.74 89.17 307.86C90.46 305.66 89.7 304.17 87.5 302.89H87.49Z" fill="white"></path><path d="M69.7 299.05L71.59 300.37C73.76 301.89 74.83 300.92 76.02 299.22L79.4 294.38L82.13 296.28L74.99 306.51L72.28 304.62L75.07 300.62C73.4 303.02 70.77 303.59 69.13 302.45L67.92 301.61L69.71 299.05H69.7Z" fill="white"></path><path d="M64.11 303.83C63.44 304.7 62.26 304.83 61.39 304.16C60.52 303.49 60.37 302.33 61.04 301.46C61.71 300.59 62.87 300.44 63.74 301.11C64.61 301.78 64.78 302.95 64.11 303.82V303.83ZM66.37 300.37L63.76 298.35L71.38 288.47L73.99 290.49L66.37 300.37Z" fill="white"></path><path d="M67.83 285.63L70.32 287.83L62.07 297.19L59.58 294.99L63.08 291.01C60.09 294.4 56.63 292.92 55.39 291.83C54.08 290.67 51.55 287.72 54.87 283.95L59.7 278.47L62.19 280.67L57.76 285.7C56.4 287.24 56.92 289.15 58.23 290.31C59.66 291.57 62.12 292.1 63.39 290.66L67.82 285.63H67.83Z" fill="white"></path><path d="M42.25 278.13L40.04 275.75L48.15 268.21C51.04 265.52 54.59 265.7 57.5 268.83L60.97 272.57L58.88 274.51L55.37 270.74C53.67 268.91 52.25 268.82 50.35 270.59L47.71 273.04C51.64 270.51 54.36 272.63 55.28 273.62C58 276.55 57.13 279.69 54.48 282.15C51.59 284.84 48.45 285.33 45.63 282.29C44.59 281.17 42.95 278.57 45.78 274.85L42.25 278.14V278.13ZM47 279.35C48.45 280.91 50.5 281.39 52.26 279.75C53.94 278.18 53.51 276.03 52.15 274.56C50.63 272.93 48.53 272.32 46.83 273.91C45.07 275.54 45.44 277.66 47 279.35Z" fill="white"></path><path d="M36.52 262.38L39.76 266.95L37.15 268.8L33.91 264.23L29.36 267.46L27.51 264.85L32.06 261.62L28.85 257.09L31.46 255.24L34.67 259.77L39.22 256.54L41.07 259.15L36.52 262.38Z" fill="white"></path><path d="M26.47 250.33C21.6 252.83 17.02 251.13 14.47 246.17C12.55 242.43 12.3 238.1 15.99 235.5L17.53 238.5C15.98 239.86 16.12 242.6 17.26 244.82C19.06 248.34 21.96 248.84 24.9 247.34C27.84 245.83 29.14 243.22 27.31 239.67C26.28 237.67 24.16 235.67 21.94 236.16L20.42 233.2C24.73 231.8 28.17 234.56 30.1 238.32C32.68 243.35 31.33 247.84 26.46 250.33H26.47Z" fill="white"></path><path d="M11.46 227.32C9.87001 223.14 10.69 220.07 14.87 218.49C18.8 217 21.68 218.74 23.24 222.86C24.72 226.76 23.84 230.3 19.92 231.79C15.88 233.32 13.07 231.56 11.46 227.32ZM20.58 223.86C19.72 221.59 18.05 220.73 16 221.51C13.85 222.33 13.3 224.06 14.15 226.3C15.01 228.57 16.72 229.55 18.75 228.78C21.13 227.88 21.48 226.25 20.58 223.86Z" fill="white"></path><path d="M19.49 212.37L20.27 215.6L8.12 218.55L7.34 215.32L12.49 214.07C8.08999 215.14 6.23 212.55 5.88 211.09C5.47 209.41 5.89 206.15 10.77 204.97C5.89 206.15 4.01 203.39 3.64 201.89C2.92 198.93 4.12 196.86 7.11 196.14L15.08 194.21L15.86 197.44L8.93999 199.12C7.45999 199.48 6.48 200.75 6.9 202.47C7.35 204.32 9.1 205.38 10.77 204.98L17.31 203.4L18.09 206.61L11.17 208.29C9.64 208.66 8.75 209.96 9.13 211.54C9.58 213.39 11.29 214.39 12.96 213.98L19.49 212.4V212.37Z" fill="white"></path><path d="M14.69 190.25L14.98 193.56L2.52999 194.67L2.24 191.36L7.52 190.89C3.00999 191.29 1.56 188.46 1.42 186.96C1.26999 185.24 2.17 182.08 7.17 181.63C2.17 182.08 0.719995 179.07 0.579995 177.52C0.309995 174.48 1.8 172.62 4.86 172.35L13.03 171.62L13.32 174.93L6.22 175.56C4.7 175.69 3.53999 176.8 3.7 178.57C3.87 180.46 5.43999 181.78 7.16 181.63L13.86 181.04L14.15 184.33L7.05 184.96C5.48 185.1 4.4 186.25 4.55 187.87C4.72 189.76 6.26 191.01 7.98 190.85L14.68 190.26L14.69 190.25Z" fill="white"></path><path d="M7.14 170.62C2.77 170.48 0.739999 167.97 0.869999 163.77C0.999999 159.5 3.31 156.99 7.58 157.12L8.48 157.15L8.15 167.6C10 167.66 11.03 165.99 11.09 163.94C11.15 161.99 10.51 160.74 9.45 160.44L9.55 157.39C12.66 158.09 13.88 160.43 13.77 164.08C13.64 168.2 11.29 170.76 7.14 170.63V170.62ZM6.36 160.26C4.64 160.21 3.63 162.08 3.57 163.83C3.51 165.65 4.23 167.5 6.11 167.56L6.36 160.26Z" fill="white"></path><path d="M5.47001 146.83L5.22001 149.12C4.93001 151.75 6.29001 152.23 8.35001 152.46L14.22 153.1L13.86 156.41L1.46001 155.05L1.82001 151.77L6.67001 152.3C3.76001 151.98 2.00001 149.95 2.22001 147.96L2.38001 146.49L5.49001 146.83H5.47001Z" fill="white"></path><path d="M3.64999 138.67C4.23999 135.45 6.36999 131.77 10.04 132.4L9.43999 135.67C7.77999 135.7 6.83999 137.53 6.55999 139C6.02999 141.85 7.39999 143.4 9.21999 143.74C11.04 144.07 12.88 143.19 13.41 140.32C13.68 138.85 13.48 136.77 11.95 136.14L12.55 132.87C16.3 133.64 16.86 137.88 16.31 140.88C15.56 144.96 12.79 147.68 8.63999 146.91C4.62999 146.17 2.93999 142.55 3.64999 138.67Z" fill="white"></path><path d="M1.45 129.35C0.380001 129.08 -0.209999 128.05 0.0600008 126.99C0.330001 125.92 1.33 125.32 2.4 125.59C3.47 125.86 4.07 126.86 3.8 127.93C3.53 129 2.52 129.62 1.46 129.35H1.45ZM5.53 130.04L6.34 126.84L18.44 129.89L17.63 133.09L5.53 130.04Z" fill="white"></path><path d="M15.19 127.57C12.72 126.77 12.66 123.78 13.25 121.56L14.73 116.08L14.42 115.98C12.64 115.4 11.75 117.4 11.27 118.9C10.83 120.26 10.34 122.51 12.03 123.06L11.1 125.94C7.78999 124.87 7.75999 121.57 8.83999 118.22C10.19 114.03 12.41 111.97 16.17 113.18L22.9 115.36L21.93 118.36L17.7 116.99C21.63 118.26 20.98 122.44 20.47 124.03C19.72 126.36 17.69 128.39 15.2 127.58L15.19 127.57ZM17.6 116.95L16.84 116.7L15.71 120.85C15.42 121.91 14.97 124.03 16.09 124.39C17.3 124.78 18.24 123.35 18.58 122.22C19.04 120.56 19.49 117.55 17.61 116.94L17.6 116.95Z" fill="white"></path><path d="M7.14 108.07L8.28 105.19L24.56 111.62L23.42 114.5L7.14 108.07Z" fill="white"></path><path d="M9.72 104.01C8.71 103.57 8.29 102.47 8.72 101.46C9.15 100.45 10.24 100.02 11.25 100.45C12.26 100.88 12.69 101.97 12.26 102.98C11.83 103.99 10.73 104.44 9.72 104.01ZM13.64 105.34L14.95 102.31L26.41 107.24L25.11 110.27L13.65 105.34H13.64Z" fill="white"></path><path d="M24.6 101.48C25.69 101.98 26.84 100.6 27.61 99.08C28.22 97.88 29.16 95.8 28.2 95.32C27.66 95.05 26.47 96.41 25.84 97.26L23.61 100.05C22.28 101.67 20.57 102.88 18.86 102.01C16.79 100.96 17.04 97.64 18.62 94.52C20.24 91.33 22.62 89.51 25 90.72L23.65 93.37C22.69 92.88 21.49 94.04 20.71 95.58C20.1 96.78 19.38 98.75 20.23 99.18C20.85 99.5 21.59 98.72 22.39 97.64L25.19 94.1C26.36 92.62 27.93 91.85 29.42 92.6C32.01 93.91 31.45 96.83 29.76 100.17C28.1 103.45 25.76 105.46 23.22 104.17L24.59 101.47L24.6 101.48Z" fill="white"></path><path d="M30.12 91.62C27.92 90.23 28.61 87.32 29.74 85.31L32.54 80.37L32.27 80.2C30.69 79.2 29.33 80.91 28.49 82.24C27.73 83.44 26.69 85.51 28.19 86.46L26.57 89.02C23.64 87.16 24.42 83.96 26.3 80.98C28.65 77.26 31.32 75.81 34.65 77.93L40.63 81.71L38.95 84.37L35.19 81.99C38.67 84.2 37.01 88.08 36.12 89.5C34.81 91.57 32.35 93.03 30.13 91.62H30.12ZM35.1 81.93L34.42 81.5L32.29 85.24C31.74 86.2 30.78 88.13 31.78 88.76C32.86 89.44 34.12 88.29 34.73 87.28C35.59 85.78 36.77 82.98 35.1 81.93Z" fill="white"></path><path d="M36.81 66.55L37.52 65.61L39.71 67.27L37.2 70.58L40.96 73.43C41.8 74.06 42.58 74.15 43.18 73.36L44.84 71.17L47.29 73.03L44.96 76.1C43.55 77.95 41.56 77.98 39.57 76.47L35.23 73.18L33.63 75.29L31.44 73.63L36.17 67.4C34.04 70.21 32.99 71.51 30.18 69.38L28.87 68.38L30.85 65.77L33.26 67.6C34.61 68.63 35.6 68.15 36.81 66.56V66.55Z" fill="white"></path><path d="M35.32 61.56C34.48 60.85 34.4 59.67 35.11 58.83C35.82 57.99 36.98 57.89 37.82 58.6C38.66 59.31 38.76 60.47 38.05 61.31C37.34 62.15 36.16 62.27 35.32 61.56ZM38.68 63.97L40.81 61.45L50.34 69.5L48.21 72.02L38.68 63.97Z" fill="white"></path><path d="M46.95 54.54C50.06 51.32 53.18 50.75 56.4 53.85C59.42 56.77 59.08 60.11 56.03 63.28C53.13 66.29 49.56 67.01 46.53 64.09C43.42 61.09 43.81 57.79 46.95 54.53V54.54ZM53.97 61.31C55.65 59.56 55.72 57.69 54.14 56.16C52.48 54.56 50.68 54.81 49.02 56.54C47.34 58.29 47.18 60.25 48.75 61.76C50.59 63.53 52.21 63.15 53.98 61.31H53.97Z" fill="white"></path><path d="M64.06 55.48L61.53 57.64L53.44 48.14L55.97 45.98L59.41 50.01C56.47 46.57 58.43 43.35 59.69 42.28C61.02 41.14 64.31 39.07 67.57 42.89L72.31 48.45L69.78 50.61L65.43 45.51C64.1 43.95 62.13 44.18 60.8 45.32C59.35 46.55 58.47 48.91 59.72 50.38L64.07 55.48H64.06Z" fill="white"></path><path d="M76.09 34.12L86.82 27.57L88.59 30.47L77.86 37.02L76.09 34.12Z" fill="white"></path></g><defs><clipPath id="clip0_819_4675"><rect width="333.71" height="338.55" fill="white"></rect></clipPath></defs></svg> 